<?xml version="1.0" encoding="UTF-8" standalone="no"?>
<!-- Generator: Adobe Illustrator 16.0.0, SVG Export Plug-In . SVG Version: 6.00 Build 0)  -->

<svg
   xmlns:dc="http://purl.org/dc/elements/1.1/"
   xmlns:cc="http://creativecommons.org/ns#"
   xmlns:rdf="http://www.w3.org/1999/02/22-rdf-syntax-ns#"
   xmlns:svg="http://www.w3.org/2000/svg"
   xmlns="http://www.w3.org/2000/svg"
   xmlns:sodipodi="http://sodipodi.sourceforge.net/DTD/sodipodi-0.dtd"
   xmlns:inkscape="http://www.inkscape.org/namespaces/inkscape"
   version="1.1"
   id="Calque_1"
   x="0px"
   y="0px"
   width="95.183334"
   height="15.958853"
   viewBox="0 0 95.18334 15.958853"
   enable-background="new 0 0 316 74"
   xml:space="preserve"
   sodipodi:docname="OctoRGB_Logo_Orange.svg"
   inkscape:version="0.92.3 (2405546, 2018-03-11)"><metadata
   id="metadata869"><rdf:RDF><cc:Work
       rdf:about=""><dc:format>image/svg+xml</dc:format><dc:type
         rdf:resource="http://purl.org/dc/dcmitype/StillImage" /><dc:title></dc:title></cc:Work></rdf:RDF></metadata><defs
   id="defs867" /><sodipodi:namedview
   pagecolor="#ffffff"
   bordercolor="#666666"
   borderopacity="1"
   objecttolerance="10"
   gridtolerance="10"
   guidetolerance="10"
   inkscape:pageopacity="0"
   inkscape:pageshadow="2"
   inkscape:window-width="1920"
   inkscape:window-height="1055"
   id="namedview865"
   showgrid="false"
   fit-margin-top="0"
   fit-margin-left="0"
   fit-margin-right="0"
   fit-margin-bottom="0"
   inkscape:zoom="2.153481"
   inkscape:cx="59.818048"
   inkscape:cy="37.473069"
   inkscape:window-x="1920"
   inkscape:window-y="0"
   inkscape:window-maximized="1"
   inkscape:current-layer="Calque_1" />
<path
   d="m 0,7.9318831 c 0,5.2960109 4.0136517,8.0269699 7.9082769,8.0269699 4.0133191,0 7.9794271,-2.849653 7.9794271,-8.0269699 0,-3.3008238 -2.398483,-5.8894826 -3.87102,-5.8894826 h -0.237387 c -0.168898,0 -0.501375,-0.6649524 -0.712497,-0.6649524 H 9.3093315 c -0.2320691,0 -0.5013747,-0.712496 -0.7124965,-0.712496 H 5.4619178 c -0.4019638,0 -0.7277904,1.1400603 -0.9738227,1.1400603 H 4.1556189 C 2.4699652,1.8050124 0,4.654665 0,7.9318831 Z m 33.675176,8.0269699 c 1.329904,0 2.802108,-0.45117 3.633299,-0.90234 v -3.230006 c -2.398483,0.878735 -4.013319,0.76004 -4.013319,-1.472536 V 7.3616861 h 3.989713 V 3.847081 H 33.295156 V 2.2558501 c 0,-0.3088701 -0.142631,-0.4275645 -0.380019,-0.4275645 -0.474776,0 -0.474776,-0.7361018 -0.736102,-0.7361018 h -1.520082 c -0.213782,0 -0.474774,0.7361018 -0.712497,0.7361018 -0.261326,0 -0.45117,0.095089 -0.45117,0.3800201 v 8.7394673 c 0,3.182462 1.092518,5.01108 4.17989,5.01108 z m 4.939597,-6.1508079 c 0,3.7759309 2.730959,6.1508079 6.055721,6.1508079 2.992285,0 6.032113,-2.113551 6.032113,-6.1508079 0,-2.588659 -2.208971,-4.9395974 -4.559577,-4.9395974 -0.284932,0 -0.332476,-1.0449732 -0.712496,-1.0449732 h -1.543687 c -0.403626,0 -0.308538,0.664953 -0.76004,0.664953 -1.04464,0 -4.512034,1.8522246 -4.512034,5.3196176 z m -21.326015,0.04755 c 0,3.7998699 2.730959,6.0796589 6.079658,6.0796589 2.137157,0 4.25104,-1.21121 5.08223,-2.754898 L 25.244579,11.25698 c -0.403626,0.664952 -1.14006,1.092185 -1.852225,1.092185 -1.424993,0 -2.184701,-1.068579 -2.184701,-2.327333 0,-1.2584219 1.068579,-2.2797889 2.184701,-2.2797889 0.736103,0 1.329906,0.166238 1.876163,1.068578 l 3.016224,-2.208638 C 27.690939,5.5809483 26.62236,4.7973022 25.577388,4.7973022 c -0.356083,0 -0.332477,-1.0685782 -0.712497,-1.0685782 h -1.686319 c -0.237387,0 -0.38002,0.6174079 -0.712496,0.6174079 h -0.641347 c -0.356081,0 -0.38002,0.6888902 -0.712495,0.6888902 -1.923708,-3.323e-4 -3.823476,2.564388 -3.823476,4.820571 z m 69.74884,-6.2219589 h 1.519734 c 1.235158,0 1.923711,0.498714 1.923711,1.3774482 0,0.9974287 -0.593797,1.4485987 -1.828615,1.4485987 h -1.61483 z M 7.9318827,12.515398 c -2.3984829,0 -4.0133192,-1.828618 -4.0133192,-4.3457949 0,-2.4935713 1.6148363,-4.3221898 4.0133192,-4.3221898 2.3748773,0 4.0372583,1.8286185 4.0372583,4.3221898 0,2.5171769 -1.662381,4.3457949 -4.0372583,4.3457949 z M 44.670494,12.27801 c -1.211211,0 -2.184701,-0.997428 -2.184701,-2.256183 0,-1.2584219 0.97349,-2.2561829 2.184701,-2.2561829 1.187272,0 2.1847,0.997429 2.1847,2.2561829 3.32e-4,1.258755 -0.997096,2.256183 -2.1847,2.256183 z M 89.008508,9.4519631 c 1.496143,0 2.113556,0.546258 2.113556,1.4485989 0,0.878733 -0.593805,1.448265 -2.113556,1.448265 H 87.08513 V 9.4516301 h 1.923378 z m -7.5994,-2.446359 h -7.88434 v 3.1109779 h 3.942169 c -0.189847,1.329905 -0.973822,2.778504 -3.705119,2.778504 -2.778166,0 -4.13201,-2.208972 -4.13201,-4.7261479 0,-2.3509391 1.638442,-4.3221902 4.13201,-4.3221902 1.614838,0 2.754906,0.664953 3.348702,1.4485991 L 80.078869,2.9680138 C 79.651633,2.2791235 78.772901,1.4479335 77.062975,1.4479335 h -0.997426 c -0.284604,0 -0.308873,-1.258755 -0.712495,-1.258755 h -2.754898 c -0.284598,0 -0.450839,0.7836463 -0.712496,0.7836463 h -1.068579 c -0.308873,0 -0.47511,0.7124965 -0.760043,0.7124965 -1.852221,0 -4.274645,2.7785028 -4.274645,6.4832838 0,4.5359719 3.182462,7.7895829 7.955823,7.7895829 4.203825,0 7.670551,-2.327333 7.670551,-8.0269709 v -0.925613 z m 13.774147,4.1087399 c 0,-2.0899459 -1.543682,-3.5860869 -3.467394,-3.6336319 2.161096,-0.52232 2.754901,-1.6859865 2.754901,-3.253611 0,-1.6623809 -0.902337,-2.9686791 -2.541116,-2.9686791 h -1.068915 c -0.237384,0 -0.09475,-0.7361023 -0.475109,-0.7361023 H 87.179561 C 86.84708,0.5223197 87.036924,0 86.704451,0 h -2.493568 c -0.332472,0 -0.213784,1.2587545 -0.593472,1.2587545 -0.332481,0 -0.427569,0.2373878 -0.427569,0.5938024 l 0.04763,13.8692411 h 5.818334 c 4.132672,-3.32e-4 6.127531,-1.615169 6.127531,-4.607454 z m -37.166174,-0.855129 2.968678,5.462251 h 4.274314 L 61.602839,9.2381811 Z m -0.07115,-6.2931079 c 1.424995,0 2.303731,0.4275646 2.303731,1.6384423 0,1.3062997 -0.925948,1.8525577 -2.303731,1.8525577 h -1.472537 v -3.491 z m -0.688886,6.4832839 c 3.490998,0 6.887237,-0.8311899 6.887237,-5.2720733 0,-2.3033945 -1.329899,-3.6572372 -3.823474,-3.6572372 -0.45117,0 -0.498712,-0.7124966 -0.831188,-0.7124966 H 57.233437 C 56.80587,0.8075839 56.829809,0 56.520941,0 h -2.517176 c -0.380354,0 -0.237724,1.2823602 -0.71283,1.2823602 -0.260994,0 -0.546258,0.2137821 -0.546258,0.6649521 V 15.721466 h 3.799868 v -5.272075 z"
   id="path862"
   inkscape:connector-curvature="0"
   style="fill:#ea5b0c;stroke-width:0.33247611" />
</svg>